<svg xmlns="http://www.w3.org/2000/svg" viewBox="0 0 32 32" fill="none">
  <!-- Background -->
  <rect width="32" height="32" rx="8" fill="url(#lionGradient)"/>
  
  <!-- Mane - Outer -->
  <circle cx="16" cy="16" r="13" fill="#F59E0B"/>
  
  <!-- Mane - Inner spikes -->
  <path d="M16 3C17 5 18 6 16 8C14 6 15 5 16 3Z" fill="#D97706"/>
  <path d="M22 5C21 7 21 8 19 8C20 6 21 6 22 5Z" fill="#D97706"/>
  <path d="M10 5C11 7 11 8 13 8C12 6 11 6 10 5Z" fill="#D97706"/>
  <path d="M27 10C25 10 24 11 24 13C25 12 26 11 27 10Z" fill="#D97706"/>
  <path d="M5 10C7 10 8 11 8 13C7 12 6 11 5 10Z" fill="#D97706"/>
  <path d="M28 16C26 16 25 16 24 18C26 17 27 17 28 16Z" fill="#D97706"/>
  <path d="M4 16C6 16 7 16 8 18C6 17 5 17 4 16Z" fill="#D97706"/>
  <path d="M26 22C25 21 24 21 23 22C24 22 25 22 26 22Z" fill="#D97706"/>
  <path d="M6 22C7 21 8 21 9 22C8 22 7 22 6 22Z" fill="#D97706"/>
  
  <!-- Face -->
  <ellipse cx="16" cy="17" rx="9" ry="8" fill="#FCD34D"/>
  
  <!-- Ears -->
  <ellipse cx="9" cy="10" rx="2.5" ry="2" fill="#FCD34D"/>
  <ellipse cx="9" cy="10" rx="1.5" ry="1" fill="#FBBF24"/>
  <ellipse cx="23" cy="10" rx="2.5" ry="2" fill="#FCD34D"/>
  <ellipse cx="23" cy="10" rx="1.5" ry="1" fill="#FBBF24"/>
  
  <!-- Eyes -->
  <ellipse cx="12.5" cy="15" rx="2" ry="2.5" fill="#1a1a2e"/>
  <ellipse cx="19.5" cy="15" rx="2" ry="2.5" fill="#1a1a2e"/>
  <circle cx="13" cy="14.5" r="0.8" fill="white"/>
  <circle cx="20" cy="14.5" r="0.8" fill="white"/>
  
  <!-- Nose -->
  <path d="M16 17.5L14.5 20L17.5 20Z" fill="#92400E"/>
  
  <!-- Mouth -->
  <path d="M16 20L16 21.5" stroke="#92400E" stroke-width="0.8" stroke-linecap="round"/>
  <path d="M16 21.5C14.5 22.5 13.5 22 13 21" stroke="#92400E" stroke-width="0.8" stroke-linecap="round" fill="none"/>
  <path d="M16 21.5C17.5 22.5 18.5 22 19 21" stroke="#92400E" stroke-width="0.8" stroke-linecap="round" fill="none"/>
  
  <!-- Whisker dots -->
  <circle cx="13" cy="19" r="0.5" fill="#92400E"/>
  <circle cx="11" cy="18.5" r="0.5" fill="#92400E"/>
  <circle cx="12" cy="20" r="0.5" fill="#92400E"/>
  <circle cx="19" cy="19" r="0.5" fill="#92400E"/>
  <circle cx="21" cy="18.5" r="0.5" fill="#92400E"/>
  <circle cx="20" cy="20" r="0.5" fill="#92400E"/>
  
  <defs>
    <linearGradient id="lionGradient" x1="0" y1="0" x2="32" y2="32" gradientUnits="userSpaceOnUse">
      <stop offset="0%" stop-color="#059669"/>
      <stop offset="100%" stop-color="#047857"/>
    </linearGradient>
  </defs>
</svg>
