<svg xmlns="http://www.w3.org/2000/svg" viewBox="0 0 32 32" fill="none">
  <!-- Background -->
  <rect width="32" height="32" rx="8" fill="url(#gradient)"/>
  
  <!-- Cat Face -->
  <ellipse cx="16" cy="17" rx="9" ry="8" fill="white"/>
  
  <!-- Left Ear -->
  <path d="M7 12L9 6L13 11Z" fill="white"/>
  <path d="M8 10.5L9.5 7L11.5 10Z" fill="#FF6B9D"/>
  
  <!-- Right Ear -->
  <path d="M25 12L23 6L19 11Z" fill="white"/>
  <path d="M24 10.5L22.5 7L20.5 10Z" fill="#FF6B9D"/>
  
  <!-- Eyes -->
  <ellipse cx="12" cy="15" rx="2" ry="2.5" fill="#1a1a2e"/>
  <ellipse cx="20" cy="15" rx="2" ry="2.5" fill="#1a1a2e"/>
  <circle cx="12.5" cy="14.5" r="0.8" fill="white"/>
  <circle cx="20.5" cy="14.5" r="0.8" fill="white"/>
  
  <!-- Nose -->
  <ellipse cx="16" cy="19" rx="1.2" ry="1" fill="#FF6B9D"/>
  
  <!-- Mouth -->
  <path d="M16 20C16 20 14 22 13 21.5" stroke="#1a1a2e" stroke-width="0.8" stroke-linecap="round" fill="none"/>
  <path d="M16 20C16 20 18 22 19 21.5" stroke="#1a1a2e" stroke-width="0.8" stroke-linecap="round" fill="none"/>
  
  <!-- Whiskers -->
  <line x1="6" y1="17" x2="10" y2="18" stroke="#1a1a2e" stroke-width="0.6" stroke-linecap="round"/>
  <line x1="6" y1="19" x2="10" y2="19" stroke="#1a1a2e" stroke-width="0.6" stroke-linecap="round"/>
  <line x1="22" y1="18" x2="26" y2="17" stroke="#1a1a2e" stroke-width="0.6" stroke-linecap="round"/>
  <line x1="22" y1="19" x2="26" y2="19" stroke="#1a1a2e" stroke-width="0.6" stroke-linecap="round"/>
  
  <defs>
    <linearGradient id="gradient" x1="0" y1="0" x2="32" y2="32" gradientUnits="userSpaceOnUse">
      <stop offset="0%" stop-color="#6366f1"/>
      <stop offset="100%" stop-color="#a855f7"/>
    </linearGradient>
  </defs>
</svg>
